<svg width="333" height="61" viewBox="0 0 333 61" fill="none" xmlns="http://www.w3.org/2000/svg">
<mask id="mask0_2_44" style="mask-type:alpha" maskUnits="userSpaceOnUse" x="0" y="4" width="53" height="53">
<rect y="4" width="53" height="53" fill="#D9D9D9"/>
</mask>
<g mask="url(#mask0_2_44)">
<path d="M9.93749 53.6875C8.58379 53.6875 7.40803 53.1794 6.41023 52.1632C5.41244 51.147 4.91354 49.9804 4.91354 48.6635V38.2844L13.4708 29.0094L17.0594 32.6531L10.8208 39.4437H42.2896L36.3271 32.7083L39.9708 29.0646L48.1417 38.2844V48.6635C48.1417 49.9804 47.6372 51.147 46.6284 52.1632C45.6199 53.1794 44.4313 53.6875 43.0625 53.6875H9.93749ZM23.1875 34.3646L15.2375 26.4146C14.2069 25.3995 13.7285 24.2164 13.8021 22.8652C13.8757 21.5141 14.4278 20.3233 15.4583 19.2927L26.3896 8.36146C27.3465 7.44132 28.5063 6.98125 29.8688 6.98125C31.231 6.98125 32.4268 7.47812 33.4562 8.47187L41.351 16.4771C42.3448 17.5076 42.8325 18.6854 42.8141 20.0104C42.7957 21.3354 42.2528 22.5316 41.1854 23.599L30.3646 34.4198C29.3377 35.4135 28.1332 35.9196 26.7512 35.938C25.3691 35.9564 24.1812 35.4319 23.1875 34.3646ZM37.2656 19.8448L29.8677 12.4469L19.2125 23.0469L26.6656 30.5L37.2656 19.8448Z" fill="white"/>
</g>
<path d="M63.3538 49V12.4797H89.6741V20.4685H73.2685V26.7455H88.3189V34.7343H73.2685V41.0112H89.6028V49H63.3538ZM104.577 12.4797V49H94.734V12.4797H104.577ZM122.717 49.4993C119.793 49.4993 117.272 48.9406 115.156 47.8231C113.052 46.6937 111.429 45.0769 110.288 42.9727C109.159 40.8566 108.594 38.3245 108.594 35.3762C108.594 32.5469 109.165 30.0741 110.306 27.958C111.447 25.842 113.058 24.1955 115.138 23.0185C117.219 21.8416 119.674 21.2531 122.503 21.2531C124.572 21.2531 126.444 21.5741 128.12 22.2161C129.796 22.858 131.229 23.7913 132.418 25.0157C133.607 26.2283 134.522 27.7024 135.164 29.4381C135.806 31.1738 136.127 33.1294 136.127 35.3049V37.5874H111.661V32.1664H127.068C127.056 31.3818 126.854 30.6923 126.462 30.0979C126.081 29.4916 125.564 29.022 124.91 28.6892C124.269 28.3444 123.537 28.172 122.717 28.172C121.921 28.172 121.19 28.3444 120.524 28.6892C119.858 29.022 119.323 29.4857 118.919 30.0801C118.527 30.6745 118.319 31.3699 118.295 32.1664V38.0154C118.295 38.8951 118.479 39.6797 118.848 40.3692C119.216 41.0587 119.745 41.5997 120.435 41.992C121.124 42.3843 121.956 42.5804 122.931 42.5804C123.609 42.5804 124.227 42.4853 124.786 42.2951C125.356 42.1049 125.844 41.8315 126.248 41.4748C126.652 41.1063 126.949 40.6664 127.14 40.1552H136.127C135.818 42.0573 135.087 43.7098 133.934 45.1126C132.78 46.5035 131.253 47.5853 129.351 48.358C127.46 49.1189 125.249 49.4993 122.717 49.4993ZM153.339 49.4993C150.367 49.4993 147.823 48.9108 145.707 47.7339C143.591 46.5451 141.968 44.8927 140.839 42.7766C139.71 40.6486 139.145 38.1818 139.145 35.3762C139.145 32.5706 139.71 30.1098 140.839 27.9937C141.968 25.8657 143.591 24.2133 145.707 23.0364C147.823 21.8476 150.367 21.2531 153.339 21.2531C156.026 21.2531 158.35 21.7406 160.312 22.7154C162.285 23.6783 163.813 25.0455 164.895 26.8168C165.976 28.5762 166.523 30.6448 166.535 33.0224H157.405C157.274 31.5839 156.858 30.4902 156.157 29.7413C155.467 28.9804 154.576 28.6 153.482 28.6C152.626 28.6 151.877 28.8497 151.235 29.349C150.593 29.8364 150.094 30.5794 149.737 31.578C149.381 32.5647 149.202 33.807 149.202 35.3049C149.202 36.8028 149.381 38.051 149.737 39.0497C150.094 40.0364 150.593 40.7794 151.235 41.2787C151.877 41.7661 152.626 42.0098 153.482 42.0098C154.207 42.0098 154.849 41.8434 155.408 41.5105C155.967 41.1657 156.418 40.6664 156.763 40.0126C157.12 39.3469 157.334 38.5385 157.405 37.5874H166.535C166.5 40.0007 165.947 42.1049 164.877 43.9C163.807 45.6832 162.291 47.0622 160.33 48.0371C158.38 49.0119 156.05 49.4993 153.339 49.4993ZM186.931 21.6098V28.7427H168.885V21.6098H186.931ZM172.38 15.0476H182.223V40.1909C182.223 40.5713 182.288 40.8923 182.419 41.1538C182.55 41.4035 182.752 41.5937 183.026 41.7245C183.299 41.8434 183.65 41.9028 184.078 41.9028C184.375 41.9028 184.72 41.8671 185.112 41.7958C185.516 41.7245 185.813 41.665 186.003 41.6175L187.43 48.5364C186.99 48.6671 186.36 48.8276 185.54 49.0178C184.731 49.208 183.769 49.3329 182.651 49.3923C180.392 49.5112 178.496 49.2794 176.963 48.6969C175.429 48.1024 174.276 47.1692 173.503 45.8972C172.73 44.6252 172.356 43.0322 172.38 41.1182V15.0476ZM190.947 49V21.6098H200.791V49H190.947ZM195.869 18.7566C194.538 18.7566 193.396 18.3168 192.445 17.4371C191.494 16.5573 191.019 15.4993 191.019 14.2629C191.019 13.0266 191.494 11.9685 192.445 11.0888C193.396 10.2091 194.538 9.76923 195.869 9.76923C197.212 9.76923 198.354 10.2091 199.293 11.0888C200.244 11.9685 200.719 13.0266 200.719 14.2629C200.719 15.4993 200.244 16.5573 199.293 17.4371C198.354 18.3168 197.212 18.7566 195.869 18.7566ZM219.002 49.4993C216.03 49.4993 213.486 48.9108 211.37 47.7339C209.254 46.5451 207.631 44.8927 206.502 42.7766C205.372 40.6486 204.808 38.1818 204.808 35.3762C204.808 32.5706 205.372 30.1098 206.502 27.9937C207.631 25.8657 209.254 24.2133 211.37 23.0364C213.486 21.8476 216.03 21.2531 219.002 21.2531C221.974 21.2531 224.518 21.8476 226.634 23.0364C228.75 24.2133 230.373 25.8657 231.502 27.9937C232.632 30.1098 233.196 32.5706 233.196 35.3762C233.196 38.1818 232.632 40.6486 231.502 42.7766C230.373 44.8927 228.75 46.5451 226.634 47.7339C224.518 48.9108 221.974 49.4993 219.002 49.4993ZM219.073 42.2238C219.905 42.2238 220.625 41.9444 221.231 41.3857C221.837 40.8269 222.307 40.0304 222.64 38.9962C222.973 37.9619 223.139 36.7315 223.139 35.3049C223.139 33.8664 222.973 32.636 222.64 31.6136C222.307 30.5794 221.837 29.7829 221.231 29.2241C220.625 28.6654 219.905 28.386 219.073 28.386C218.194 28.386 217.439 28.6654 216.809 29.2241C216.178 29.7829 215.697 30.5794 215.364 31.6136C215.031 32.636 214.865 33.8664 214.865 35.3049C214.865 36.7315 215.031 37.9619 215.364 38.9962C215.697 40.0304 216.178 40.8269 216.809 41.3857C217.439 41.9444 218.194 42.2238 219.073 42.2238ZM247.034 33.593V49H237.191V21.6098H246.535V26.8168H246.82C247.414 25.0811 248.461 23.7199 249.959 22.7332C251.468 21.7465 253.228 21.2531 255.237 21.2531C257.175 21.2531 258.857 21.699 260.283 22.5906C261.722 23.4703 262.833 24.6829 263.618 26.2283C264.414 27.7738 264.807 29.5392 264.795 31.5245V49H254.952V33.593C254.963 32.2378 254.619 31.1738 253.917 30.401C253.228 29.6283 252.265 29.242 251.028 29.242C250.22 29.242 249.513 29.4203 248.906 29.7769C248.312 30.1217 247.854 30.621 247.533 31.2748C247.212 31.9168 247.046 32.6895 247.034 33.593ZM269.654 49V21.6098H279.498V49H269.654ZM274.576 18.7566C273.244 18.7566 272.103 18.3168 271.152 17.4371C270.201 16.5573 269.726 15.4993 269.726 14.2629C269.726 13.0266 270.201 11.9685 271.152 11.0888C272.103 10.2091 273.244 9.76923 274.576 9.76923C275.919 9.76923 277.06 10.2091 278 11.0888C278.951 11.9685 279.426 13.0266 279.426 14.2629C279.426 15.4993 278.951 16.5573 278 17.4371C277.06 18.3168 275.919 18.7566 274.576 18.7566ZM300.918 21.6098V28.7427H282.587V21.6098H300.918ZM286.082 49V20.8252C286.082 18.5664 286.486 16.6941 287.295 15.208C288.103 13.722 289.244 12.6105 290.718 11.8734C292.193 11.1364 293.928 10.7678 295.925 10.7678C297.174 10.7678 298.386 10.8629 299.563 11.0531C300.752 11.2434 301.632 11.4098 302.202 11.5524L300.776 18.614C300.419 18.507 300.003 18.4238 299.528 18.3643C299.052 18.293 298.636 18.2573 298.279 18.2573C297.352 18.2573 296.728 18.4535 296.407 18.8458C296.086 19.2381 295.925 19.7552 295.925 20.3972V49H286.082ZM310.708 59.2713C309.579 59.2713 308.503 59.1822 307.481 59.0038C306.458 58.8374 305.561 58.6056 304.788 58.3084L306.928 51.3182C307.736 51.6035 308.473 51.7878 309.139 51.871C309.817 51.9542 310.393 51.9066 310.869 51.7283C311.356 51.55 311.707 51.2112 311.921 50.7119L312.135 50.2126L302.505 21.6098H312.777L317.199 40.5832H317.485L321.978 21.6098H332.321L322.335 51.2825C321.836 52.7923 321.11 54.1476 320.159 55.3483C319.22 56.5608 317.984 57.5178 316.45 58.2192C314.917 58.9206 313.003 59.2713 310.708 59.2713Z" fill="white"/>
</svg>
